<?xml version="1.0"?><svg xmlns="http://www.w3.org/2000/svg" xmlns:xlink="http://www.w3.org/1999/xlink" width="447px" height="447px" viewBox="0 0 447 446" version="1.1" xmlns:c2pa="http://c2pa.org/manifest"><metadata><c2pa:manifest>AAAWgmp1bWIAAAAeanVtZGMycGEAEQAQgAAAqgA4m3EDYzJwYQAAABZcanVtYgAAAEdqdW1kYzJtYQARABCAAACqADibcQN1cm46YzJwYTo4ZjMyZjBjOC1mZDViLTQyMTItOGQ2YS0yZDE1MzRmNDU5OTYAAAADl2p1bWIAAAApanVtZGMyYXMAEQAQgAAAqgA4m3EDYzJwYS5hc3NlcnRpb25zAAAAALxqdW1iAAAARGp1bWRjYm9yABEAEIAAAKoAOJtxE2MycGEuaW5ncmVkaWVudC52MwAAAAAYYzJzaKtbc5ZsWhk2EL+429kWQJAAAABwY2JvcqNpZGM6Zm9ybWF0bWltYWdlL3N2Zyt4bWxqaW5zdGFuY2VJRHgseG1wOmlpZDoyMjQ2YjFkNy02MWVlLTQ3NDAtOThhNC02Yzk3NDQ0YWY1NThscmVsYXRpb25zaGlwaHBhcmVudE9mAAAB4mp1bWIAAABBanVtZGNib3IAEQAQgAAAqgA4m3ETYzJwYS5hY3Rpb25zLnYyAAAAABhjMnNoVOJyP62xJdY8maObwGeJxwAAAZljYm9yomdhY3Rpb25zgqJmYWN0aW9ua2MycGEub3BlbmVkanBhcmFtZXRlcnOha2luZ3JlZGllbnRzgaJjdXJseC1zZWxmI2p1bWJmPWMycGEuYXNzZXJ0aW9ucy9jMnBhLmluZ3JlZGllbnQudjNkaGFzaFggdE1CX54l1rdD3/lH4/lvaIZXU44T/bubIC8HIHwpOYCkZmFjdGlvbngdY29tLmFudGhyb3BpYy5jbGF1ZGUucHJvdmlkZWRqcGFyYW1ldGVyc6F4H2NvbS5hbnRocm9waWMub3JpZ2luLWNvbmZpZGVuY2VndW5rbm93bmtkZXNjcmlwdGlvbnhmQ2xhdWRlIHByb3ZpZGVkIHRoaXMgZmlsZSBhdCB0aGUgcmVxdWVzdCBvZiBhIHVzZXIgYW5kIG1heSBoYXZlIGNyZWF0ZWQgb3IgbW9kaWZpZWQgdGhlIGZpbGUgY29udGVudHMubXNvZnR3YXJlQWdlbnShZG5hbWVmQ2xhdWRlcmFsbEFjdGlvbnNJbmNsdWRlZPUAAADIanVtYgAAAEBqdW1kY2JvcgARABCAAACqADibcRNjMnBhLmhhc2guZGF0YQAAAAAYYzJzaLz7mGIduIzwPVvDulnAI48AAACAY2JvcqVjYWxnZnNoYTI1NmNwYWRNAAAAAAAAAAAAAAAAAGRoYXNoWCC7/vNF/V58H3m576Dp8TmBSNPqBnzK4H79J3zw8IhnzmRuYW1lbmp1bWJmIG1hbmlmZXN0amV4Y2x1c2lvbnOBomVzdGFydBjoZmxlbmd0aBkeBAAAAj5qdW1iAAAAJ2p1bWRjMmNsABEAEIAAAKoAOJtxA2MycGEuY2xhaW0udjIAAAACD2Nib3KlY2FsZ2ZzaGEyNTZpc2lnbmF0dXJleE1zZWxmI2p1bWJmPS9jMnBhL3VybjpjMnBhOjhmMzJmMGM4LWZkNWItNDIxMi04ZDZhLTJkMTUzNGY0NTk5Ni9jMnBhLnNpZ25hdHVyZWppbnN0YW5jZUlEeCx4bXA6aWlkOjg5ODBiNmZkLTY4NDQtNGJhMS1hZmU1LTcyOGZkYjdlNDlmZXJjcmVhdGVkX2Fzc2VydGlvbnODomN1cmx4LXNlbGYjanVtYmY9YzJwYS5hc3NlcnRpb25zL2MycGEuaW5ncmVkaWVudC52M2RoYXNoWCB0TUJfniXWt0Pf+Ufj+W9ohldTjhP9u5sgLwcgfCk5gKJjdXJseCpzZWxmI2p1bWJmPWMycGEuYXNzZXJ0aW9ucy9jMnBhLmFjdGlvbnMudjJkaGFzaFggRsQTeHb21XAMNwrKRYbxE/fGwzSvhuPMElrC8lgEl9CiY3VybHgpc2VsZiNqdW1iZj1jMnBhLmFzc2VydGlvbnMvYzJwYS5oYXNoLmRhdGFkaGFzaFggpkc1NISotB+hqnDCj+A0WUEyEaSL5k06NCxY8NvyUSR0Y2xhaW1fZ2VuZXJhdG9yX2luZm+jZG5hbWVvQW50aHJvcGljIEZpbGVzZ3ZlcnNpb25lMS4wLjBrc3BlY1ZlcnNpb25lMi40LjAAABA4anVtYgAAAChqdW1kYzJjcwARABCAAACqADibcQNjMnBhLnNpZ25hdHVyZQAAABAIY2JvctKEWQISogEmGCFZAgowggIGMIIBjaADAgECAhRA5aAK7sI50L64g/oGQgU9Z1UTADAKBggqhkjOPQQDAzBJMRcwFQYDVQQKEw5BbnRocm9waWMsIFBCQzEuMCwGA1UEAxMlQW50aHJvcGljIENvbnRlbnQgQ3JlZGVudGlhbHMgUm9vdCBDQTAeFw0yNjA4MDcxODQzNTZaFw0yODA4MDYxOTQzNTZaMEQxFzAVBgNVBAoTDkFudGhyb3BpYywgUEJDMSkwJwYDVQQDEyBBbnRocm9waWMgQ2xhdWRlIENvbnRlbnQgU2lnbmluZzBZMBMGByqGSM49AgEGCCqGSM49AwEHA0IABJh6CmvLUBgFFNU0vUKlOVtE6djd17L5SuwX0LemFisBM3dkd/3cyjxFA3Qo5S46fX0/ihY0VZ7mfb9KF703t5OjWDBWMA4GA1UdDwEB/wQEAwIHgDAVBgNVHSUEDjAMBgorBgEEAYPoXgIBMAwGA1UdEwEB/wQCMAAwHwYDVR0jBBgwFoAUzlHiBIFOZFsj+OPEz5o+nMHXXMIwCgYIKoZIzj0EAwMDZwAwZAIwMXMdFJ4BetLLVY7ORuE9noqbbAZOZn/aArXyTwFAZfKrPzxF2vPoJNf1+UCdg1XGAjBwX1zd9WGqYkqmL5SFqw1QySjr1zJfpJM9+1rdDwSPLMOPOjKuiXjoU/pUUeG9RwmhY3BhZFkNngAAAAAAAAAAAAAAAAAAAAAAAAAAAAAAAAAAAAAAAAAAAAAAAAAAAAAAAAAAAAAAAAAAAAAAAAAAAAAAAAAAAAAAAAAAAAAAAAAAAAAAAAAAAAAAAAAAAAAAAAAAAAAAAAAAAAAAAAAAAAAAAAAAAAAAAAAAAAAAAAAAAAAAAAAAAAAAAAAAAAAAAAAAAAAAAAAAAAAAAAAAAAAAAAAAAAAAAAAAAAAAAAAAAAAAAAAAAAAAAAAAAAAAAAAAAAAAAAAAAAAAAAAAAAAAAAAAAAAAAAAAAAAAAAAAAAAAAAAAAAAAAAAAAAAAAAAAAAAAAAAAAAAAAAAAAAAAAAAAAAAAAAAAAAAAAAAAAAAAAAAAAAAAAAAAAAAAAAAAAAAAAAAAAAAAAAAAAAAAAAAAAAAAAAAAAAAAAAAAAAAAAAAAAAAAAAAAAAAAAAAAAAAAAAAAAAAAAAAAAAAAAAAAAAAAAAAAAAAAAAAAAAAAAAAAAAAAAAAAAAAAAAAAAAAAAAAAAAAAAAAAAAAAAAAAAAAAAAAAAAAAAAAAAAAAAAAAAAAAAAAAAAAAAAAAAAAAAAAAAAAAAAAAAAAAAAAAAAAAAAAAAAAAAAAAAAAAAAAAAAAAAAAAAAAAAAAAAAAAAAAAAAAAAAAAAAAAAAAAAAAAAAAAAAAAAAAAAAAAAAAAAAAAAAAAAAAAAAAAAAAAAAAAAAAAAAAAAAAAAAAAAAAAAAAAAAAAAAAAAAAAAAAAAAAAAAAAAAAAAAAAAAAAAAAAAAAAAAAAAAAAAAAAAAAAAAAAAAAAAAAAAAAAAAAAAAAAAAAAAAAAAAAAAAAAAAAAAAAAAAAAAAAAAAAAAAAAAAAAAAAAAAAAAAAAAAAAAAAAAAAAAAAAAAAAAAAAAAAAAAAAAAAAAAAAAAAAAAAAAAAAAAAAAAAAAAAAAAAAAAAAAAAAAAAAAAAAAAAAAAAAAAAAAAAAAAAAAAAAAAAAAAAAAAAAAAAAAAAAAAAAAAAAAAAAAAAAAAAAAAAAAAAAAAAAAAAAAAAAAAAAAAAAAAAAAAAAAAAAAAAAAAAAAAAAAAAAAAAAAAAAAAAAAAAAAAAAAAAAAAAAAAAAAAAAAAAAAAAAAAAAAAAAAAAAAAAAAAAAAAAAAAAAAAAAAAAAAAAAAAAAAAAAAAAAAAAAAAAAAAAAAAAAAAAAAAAAAAAAAAAAAAAAAAAAAAAAAAAAAAAAAAAAAAAAAAAAAAAAAAAAAAAAAAAAAAAAAAAAAAAAAAAAAAAAAAAAAAAAAAAAAAAAAAAAAAAAAAAAAAAAAAAAAAAAAAAAAAAAAAAAAAAAAAAAAAAAAAAAAAAAAAAAAAAAAAAAAAAAAAAAAAAAAAAAAAAAAAAAAAAAAAAAAAAAAAAAAAAAAAAAAAAAAAAAAAAAAAAAAAAAAAAAAAAAAAAAAAAAAAAAAAAAAAAAAAAAAAAAAAAAAAAAAAAAAAAAAAAAAAAAAAAAAAAAAAAAAAAAAAAAAAAAAAAAAAAAAAAAAAAAAAAAAAAAAAAAAAAAAAAAAAAAAAAAAAAAAAAAAAAAAAAAAAAAAAAAAAAAAAAAAAAAAAAAAAAAAAAAAAAAAAAAAAAAAAAAAAAAAAAAAAAAAAAAAAAAAAAAAAAAAAAAAAAAAAAAAAAAAAAAAAAAAAAAAAAAAAAAAAAAAAAAAAAAAAAAAAAAAAAAAAAAAAAAAAAAAAAAAAAAAAAAAAAAAAAAAAAAAAAAAAAAAAAAAAAAAAAAAAAAAAAAAAAAAAAAAAAAAAAAAAAAAAAAAAAAAAAAAAAAAAAAAAAAAAAAAAAAAAAAAAAAAAAAAAAAAAAAAAAAAAAAAAAAAAAAAAAAAAAAAAAAAAAAAAAAAAAAAAAAAAAAAAAAAAAAAAAAAAAAAAAAAAAAAAAAAAAAAAAAAAAAAAAAAAAAAAAAAAAAAAAAAAAAAAAAAAAAAAAAAAAAAAAAAAAAAAAAAAAAAAAAAAAAAAAAAAAAAAAAAAAAAAAAAAAAAAAAAAAAAAAAAAAAAAAAAAAAAAAAAAAAAAAAAAAAAAAAAAAAAAAAAAAAAAAAAAAAAAAAAAAAAAAAAAAAAAAAAAAAAAAAAAAAAAAAAAAAAAAAAAAAAAAAAAAAAAAAAAAAAAAAAAAAAAAAAAAAAAAAAAAAAAAAAAAAAAAAAAAAAAAAAAAAAAAAAAAAAAAAAAAAAAAAAAAAAAAAAAAAAAAAAAAAAAAAAAAAAAAAAAAAAAAAAAAAAAAAAAAAAAAAAAAAAAAAAAAAAAAAAAAAAAAAAAAAAAAAAAAAAAAAAAAAAAAAAAAAAAAAAAAAAAAAAAAAAAAAAAAAAAAAAAAAAAAAAAAAAAAAAAAAAAAAAAAAAAAAAAAAAAAAAAAAAAAAAAAAAAAAAAAAAAAAAAAAAAAAAAAAAAAAAAAAAAAAAAAAAAAAAAAAAAAAAAAAAAAAAAAAAAAAAAAAAAAAAAAAAAAAAAAAAAAAAAAAAAAAAAAAAAAAAAAAAAAAAAAAAAAAAAAAAAAAAAAAAAAAAAAAAAAAAAAAAAAAAAAAAAAAAAAAAAAAAAAAAAAAAAAAAAAAAAAAAAAAAAAAAAAAAAAAAAAAAAAAAAAAAAAAAAAAAAAAAAAAAAAAAAAAAAAAAAAAAAAAAAAAAAAAAAAAAAAAAAAAAAAAAAAAAAAAAAAAAAAAAAAAAAAAAAAAAAAAAAAAAAAAAAAAAAAAAAAAAAAAAAAAAAAAAAAAAAAAAAAAAAAAAAAAAAAAAAAAAAAAAAAAAAAAAAAAAAAAAAAAAAAAAAAAAAAAAAAAAAAAAAAAAAAAAAAAAAAAAAAAAAAAAAAAAAAAAAAAAAAAAAAAAAAAAAAAAAAAAAAAAAAAAAAAAAAAAAAAAAAAAAAAAAAAAAAAAAAAAAAAAAAAAAAAAAAAAAAAAAAAAAAAAAAAAAAAAAAAAAAAAAAAAAAAAAAAAAAAAAAAAAAAAAAAAAAAAAAAAAAAAAAAAAAAAAAAAAAAAAAAAAAAAAAAAAAAAAAAAAAAAAAAAAAAAAAAAAAAAAAAAAAAAAAAAAAAAAAAAAAAAAAAAAAAAAAAAAAAAAAAAAAAAAAAAAAAAAAAAAAAAAAAAAAAAAAAAAAAAAAAAAAAAAAAAAAAAAAAAAAAAAAAAAAAAAAAAAAAAAAAAAAAAAAAAAAAAAAAAAAAAAAAAAAAAAAAAAAAAAAAAAAAAAAAAAAAAAAAAAAAAAAAAAAAAAAAAAAAAAAAAAAAAAAAAAAAAAAAAAAAAAAAAAAAAAAAAAAAAAAAAAAAAAAAAAAAAAAAAAAAAAAAAAAAAAAAAAAAAAAAAAAAAAAAAAAAAAAAAAAAAAAAAAAAAAAAAAAAAAAAAAAAAAAAAAAAAAAAAAAAAAAAAAAAAAAAAAAAAAAAAAAAAAAAAAAAAAAAAAAAAAAAAAAAAAAAAAAAAAAAAAAAAAAAAAAAAAAAAAAAAAAAAAAAAAAAAAAAAAAAAAAAAAAAAAAAAAAAAAAAAAAAAAAAAAAAAAAAAAAAAAAAAAAAAAAAAAAAAAAAAAAAAAAAAAAAAAAAAAAAAAAAAAAAAAAAAAAAAAAAAAAAAAAAAAAAAAAAAAAAAAAAAAAAAAAAAAAAAAAAAAAAAAAAAAAAAAAAAAAAAAAAAAAAAAAAAAAAAAAAAAAAAAAAAAAAAAAAAAAAAAAAAAAAAAAAAAAAAAAAAAAAAAAAAAAAAAAAAAAAAAAAAAAAAAAAAAAAAAAAAAAAAAAAAAAAAAAAAAAAAAAAAAAAAAAAAAAAAAAAAAAAAAAAAAAAAAAAAAAAAAAAAAAAAAAAAAAAAAAAAAAAAAAAAAAAAAAAAAAAAAAAAAAAAAAAAAAAAAAAAAAAAAAAAAAAAAAAAAAAAAAAAAAAAAAAAAAAAAAAAAAAAAAAAAAAAAAAAAAAAAAAAAAAAAAAAAAAAAAAAAAAAAAAAAAAAAAAAAAAAAAAAAAAAAAAAAAAAAAAAAAAAAAAAAAAAAAAAAAAAAAAAAAAAAAAAAAAAAAAAAAAAAAAAAAAAAAAAAAAAAAAAAAAAAAAAAAAAAAAAAAAAAAAAAAAAAAAAAAAAAAAAAAAAAAAAAAAAAAAAAAAAAAAAAAAAAAAAAAAAAAAAAAAAAAAAAAAAAAAAAAAAAAAAAAAAAAAAAAAAAAAAAAAAAAAAAAAAAAAAAAAAAAAAAAAAAAAAAAAAAAAAAAAAAAAAAAAAAAAAAAAAAAAAAAAAAAAAAAAAAAAAAAAAAAAAAAAAAAAAAAAAAAAAAAAAAAAAAAAAAAAAAAAAAAAAAAAAAAAAAAAAAAAAAAAAAAAAAAAAAAAAAAAAAAAAAAAAAAAAAAAAAAAAAAAAAAAAAAAAAAAAAAAAAAAAAAAAAAAAAAAAAAAAAAAAAAAAAAAAAAAAAAAAAAAAAAAAAAAAAAAAAAAAAAAAAAAAAAAAAAAAAAAAAAAAAAAAAAAAAAAAAAAAAAAAAAAAAAAAAAAAAAAAAAAAAAAAAAAAAAAAAAAAAAAAAAAAAAAAAAAAAAAAAAAAAAAAAAAAAAAAAAAAAAAAAAAAAAAAAAAAAAAAAAAAAAAAAAAAAAAAAAAAAAAAAAAAAAAAAAAAAAAAAAAAAAAAAAAAAAAAAAAAAAAAPZYQJaXX+pvu/Irjb6Td2+Q546ic5SZCpWyv3qrmoyDAkYsFgmkg5kOp19pUGqBrA7MaI2M7mN537Nk69GUcEpbNQ0=</c2pa:manifest></metadata>
<g id="surface1">
<path style=" stroke:none;fill-rule:evenodd;fill:rgb(100%,100%,100%);fill-opacity:1;" d="M 447 223 C 447 346.160156 346.9375 446 223.5 446 C 100.0625 446 0 346.160156 0 223 C 0 99.839844 100.0625 0 223.5 0 C 346.9375 0 447 99.839844 447 223 Z M 447 223 "></path>
<path style=" stroke:none;fill-rule:evenodd;fill:rgb(87.45098%,11.764706%,14.901961%);fill-opacity:1;" d="M 223.5 0 C 346.859375 0 447 99.917969 447 223 C 447 346.082031 346.859375 446 223.5 446 C 100.140625 446 0 346.082031 0 223 C 0 99.917969 100.140625 0 223.5 0 Z M 223.5 5.332031 C 103.089844 5.332031 5.34375 102.859375 5.34375 223 C 5.34375 343.140625 103.089844 440.667969 223.5 440.667969 C 343.910156 440.667969 441.65625 343.140625 441.65625 223 C 441.65625 102.859375 343.910156 5.332031 223.5 5.332031 Z M 223.5 5.332031 "></path>
<path style=" stroke:none;fill-rule:evenodd;fill:rgb(87.45098%,11.764706%,14.901961%);fill-opacity:1;" d="M 224.171875 69.546875 C 309.425781 69.546875 378.664062 138.734375 378.664062 223.929688 C 378.664062 309.125 309.425781 378.3125 224.171875 378.3125 C 138.914062 378.3125 69.675781 309.125 69.675781 223.929688 C 69.675781 138.734375 138.914062 69.546875 224.171875 69.546875 Z M 135.320312 30.445312 L 168.007812 72.675781 C 203.640625 59.058594 240.375 59.058594 278.214844 72.675781 L 310.902344 30.445312 C 252.34375 5.238281 193.878906 5.144531 135.320312 30.445312 Z M 135.320312 30.445312 "></path>
<path style=" stroke:none;fill-rule:evenodd;fill:rgb(100%,100%,100%);fill-opacity:1;" d="M 159.84375 281.148438 L 159.84375 264.980469 L 171.90625 264.980469 L 171.90625 274.808594 L 181.386719 274.808594 L 181.386719 233.839844 L 206.425781 233.839844 L 207.074219 233.015625 C 207.074219 233.015625 211.398438 227.960938 223.273438 227.960938 C 235.242188 227.960938 240.121094 233.105469 240.121094 233.105469 L 240.765625 233.839844 L 265.347656 233.839844 L 265.347656 274.808594 L 274.828125 274.808594 L 274.828125 264.980469 L 286.242188 264.980469 L 286.242188 280.503906 L 327.210938 334.699219 L 119.523438 334.699219 Z M 303.734375 310.816406 L 142.628906 310.816406 L 127.070312 332.035156 L 319.386719 332.035156 Z M 299.960938 305.675781 L 294.070312 297.683594 L 152.296875 297.683594 L 146.496094 305.675781 Z M 290.296875 292.539062 L 284.3125 284.457031 L 161.960938 284.457031 L 155.976562 292.539062 Z M 205.414062 241.648438 C 205.414062 239.996094 204.125 238.707031 202.46875 238.707031 C 202.007812 238.707031 201.546875 238.707031 201.089844 238.707031 C 199.429688 238.707031 198.140625 239.996094 198.140625 241.648438 C 198.140625 249.824219 198.140625 272.421875 198.140625 272.421875 L 205.324219 272.421875 L 205.324219 241.648438 Z M 248.039062 241.648438 C 248.039062 239.996094 246.75 238.707031 245.089844 238.707031 C 244.632812 238.707031 244.171875 238.707031 243.710938 238.707031 C 242.054688 238.707031 240.765625 239.996094 240.765625 241.648438 C 240.765625 249.824219 240.765625 272.421875 240.765625 272.421875 L 247.945312 272.421875 L 247.945312 241.648438 Z M 232.390625 241.832031 C 232.390625 237.332031 228.796875 233.746094 224.289062 233.746094 C 223.550781 233.746094 222.90625 233.746094 222.167969 233.746094 C 217.65625 233.746094 214.066406 237.332031 214.066406 241.832031 C 214.066406 253.132812 214.066406 272.332031 214.066406 272.332031 L 232.390625 272.332031 Z M 159.84375 261.398438 L 171.90625 261.398438 L 171.90625 204.996094 L 159.84375 204.996094 Z M 274.828125 261.398438 L 286.242188 261.398438 L 286.242188 204.996094 L 274.828125 204.996094 Z M 265.347656 229.613281 L 265.347656 204.996094 L 181.386719 204.996094 L 181.386719 229.613281 C 188.472656 229.613281 204.496094 229.613281 204.496094 229.613281 C 206.335938 227.871094 211.949219 223.734375 223.273438 223.734375 C 234.6875 223.734375 240.582031 227.960938 242.511719 229.613281 Z M 240.859375 213.628906 C 240.859375 213.90625 240.859375 214.183594 240.859375 214.457031 C 240.859375 216.480469 239.203125 218.039062 237.265625 218.039062 C 230.453125 218.039062 215.816406 218.039062 209.003906 218.039062 C 206.980469 218.039062 205.414062 216.386719 205.414062 214.457031 C 205.414062 214.183594 205.414062 213.90625 205.414062 213.628906 C 205.414062 211.609375 207.074219 210.046875 209.003906 210.046875 C 215.816406 210.046875 230.453125 210.046875 237.265625 210.046875 C 239.292969 210.046875 240.859375 211.703125 240.859375 213.628906 Z M 274.828125 201.414062 L 286.242188 201.414062 L 286.242188 195.351562 L 274.828125 195.351562 Z M 159.84375 201.414062 L 171.90625 201.414062 L 171.90625 195.351562 L 159.84375 195.351562 Z M 181.386719 201.414062 L 265.347656 201.414062 L 265.347656 195.351562 L 181.386719 195.351562 Z M 165.921875 195.351562 L 159.75 185.523438 L 165.550781 175.511719 L 171.535156 185.429688 Z M 280.625 195.351562 L 274.460938 185.523438 L 280.257812 175.511719 L 286.242188 185.429688 Z M 280.625 195.351562 "></path>
<path style=" stroke:none;fill-rule:evenodd;fill:rgb(87.45098%,11.764706%,14.901961%);fill-opacity:1;" d="M 164.007812 414.289062 C 164.007812 414.289062 187.636719 423.792969 223.214844 423.792969 C 253.464844 423.792969 286.746094 413.550781 286.746094 413.550781 L 285.273438 408.660156 C 285.273438 408.660156 252.726562 418.71875 223.214844 418.71875 C 188.832031 418.71875 165.9375 409.582031 165.9375 409.582031 Z M 165.753906 404.785156 L 167.40625 399.984375 C 173.109375 402.015625 193.980469 408.566406 223.214844 408.566406 C 245.28125 408.566406 269.183594 403.402344 279.941406 400.816406 L 281.136719 405.796875 C 270.195312 408.476562 245.832031 413.644531 223.214844 413.644531 C 193.152344 413.644531 171.636719 406.90625 165.753906 404.785156 Z M 172.832031 397.125 C 182.761719 399.617188 204 404.320312 223.121094 404.320312 C 243.441406 404.320312 264.953125 399.339844 273.414062 397.035156 L 272.125 392.144531 C 263.851562 394.355469 242.890625 399.246094 223.121094 399.246094 C 204.460938 399.246094 183.683594 394.632812 174.027344 392.234375 Z M 182.578125 388.820312 L 183.957031 383.929688 C 190.300781 385.773438 204.734375 389.1875 223.398438 389.1875 C 237.835938 389.1875 252.820312 386.515625 263.023438 384.203125 L 264.125 389.1875 C 253.554688 391.589844 238.203125 394.265625 223.398438 394.265625 C 204.09375 394.265625 189.105469 390.667969 182.578125 388.820312 Z M 182.578125 388.820312 "></path>
<path style="fill:none;stroke-width:4.8125;stroke-linecap:butt;stroke-linejoin:miter;stroke:rgb(94.901961%,84.705882%,5.098039%);stroke-opacity:1;stroke-miterlimit:8;" d="M 1660.660759 1665.506805 C 1565.433515 1547.653456 1508.498322 1398.19053 1508.498322 1235.674967 C 1508.498322 1034.673101 1595.446204 853.250193 1734.504509 727.498099 " transform="matrix(0.267986,0,0,0.267546,-366.068345,-108.088782)"></path>
<path style="fill:none;stroke-width:4.8125;stroke-linecap:butt;stroke-linejoin:miter;stroke:rgb(94.901961%,84.705882%,5.098039%);stroke-opacity:1;stroke-miterlimit:8;" d="M 2662.492764 723.497626 C 2803.256502 849.527125 2891.501678 1032.220256 2891.501678 1235.514364 C 2891.501678 1398.643139 2834.50818 1548.704675 2739.06229 1666.499623 " transform="matrix(0.267986,0,0,0.267546,-366.068345,-108.088782)"></path>
<path style=" stroke:none;fill-rule:evenodd;fill:rgb(87.45098%,11.764706%,14.901961%);fill-opacity:1;" d="M 32.925781 281.5625 C 32.925781 281.5625 33.199219 286.4375 32.464844 288.734375 C 31.726562 291.035156 33.015625 300.238281 35.136719 303.824219 C 37.253906 307.324219 37.992188 312.011719 44.445312 309.253906 C 49.699219 306.953125 46.839844 301.710938 45.917969 298.765625 C 44.996094 295.820312 42.230469 289.472656 38.085938 286.621094 C 33.9375 283.769531 32.925781 281.5625 32.925781 281.5625 Z M 413.5625 281.5625 C 413.5625 281.5625 413.285156 286.4375 414.023438 288.734375 C 414.757812 291.035156 413.46875 300.238281 411.351562 303.824219 C 409.230469 307.324219 408.492188 312.011719 402.039062 309.253906 C 396.789062 306.953125 399.644531 301.710938 400.566406 298.765625 C 401.488281 295.820312 404.253906 289.472656 408.398438 286.621094 C 412.546875 283.769531 413.5625 281.5625 413.5625 281.5625 Z M 69.328125 144.109375 C 64.445312 141.074219 67.300781 138.128906 68.683594 134.816406 C 70.066406 131.414062 76.058594 125.523438 78.085938 124.789062 C 80.113281 124.050781 83.429688 121.292969 83.429688 121.292969 C 83.429688 121.292969 82.417969 123.222656 82.601562 127.730469 C 82.785156 132.238281 79.746094 137.578125 78.085938 139.785156 C 76.425781 141.992188 74.214844 146.867188 69.789062 144.382812 C 69.699219 144.292969 69.605469 144.292969 69.511719 144.199219 C 69.328125 145.027344 69.050781 146.960938 69.511719 150.273438 C 70.25 154.6875 67.855469 160.394531 66.472656 162.785156 C 65.183594 165.085938 63.523438 170.050781 59.097656 168.488281 C 59.007812 169.042969 58.914062 171.15625 60.113281 174.746094 C 61.496094 178.976562 60.113281 185.046875 59.097656 187.625 C 58.175781 190.109375 57.347656 195.261719 52.738281 194.433594 C 52.738281 194.984375 53.015625 197.011719 54.769531 200.414062 C 56.792969 204.371094 56.425781 210.625 55.871094 213.292969 C 55.320312 215.964844 55.410156 221.390625 50.34375 221.023438 C 50.34375 221.023438 50.25 221.023438 50.25 221.023438 C 50.34375 221.484375 50.804688 223.503906 53.199219 226.726562 C 55.871094 230.316406 56.425781 236.480469 56.332031 239.238281 C 56.242188 242 57.164062 247.335938 52.09375 247.703125 C 52.09375 247.703125 52.003906 247.703125 52.003906 247.703125 C 52.1875 248.070312 52.925781 250.09375 55.78125 252.855469 C 59.007812 255.984375 60.574219 261.960938 60.941406 264.722656 C 61.308594 267.484375 63.0625 272.542969 58.085938 273.832031 C 57.902344 273.925781 57.714844 273.925781 57.53125 273.925781 C 57.902344 274.476562 59.097656 276.132812 62.046875 278.15625 C 65.734375 280.734375 68.222656 286.34375 69.050781 289.011719 C 69.882812 291.683594 72.371094 296.371094 67.761719 298.398438 C 62.046875 300.878906 61.402344 296.648438 59.464844 293.519531 C 57.53125 290.390625 56.425781 282.113281 57.070312 279.996094 C 57.625 278.25 57.53125 274.84375 57.441406 273.832031 C 52.09375 274.84375 52.09375 270.796875 50.710938 267.484375 C 49.328125 264.078125 49.511719 255.707031 50.527344 253.777344 C 51.449219 252.027344 51.910156 248.164062 51.910156 247.613281 C 45.828125 248.070312 46.566406 243.929688 45.734375 240.34375 C 44.90625 236.753906 46.472656 228.566406 47.761719 226.816406 C 48.960938 225.253906 49.972656 221.484375 50.160156 220.933594 C 44.074219 220.378906 45.457031 216.421875 45.273438 212.742188 C 45.089844 209.0625 47.949219 201.242188 49.421875 199.679688 C 50.804688 198.296875 52.371094 194.984375 52.738281 194.34375 C 52.648438 194.34375 52.554688 194.34375 52.464844 194.25 C 46.378906 192.777344 48.410156 189.003906 48.777344 185.328125 C 49.144531 181.644531 53.199219 174.378906 55.042969 173.089844 C 56.609375 171.984375 58.730469 168.949219 59.191406 168.304688 C 59.097656 168.304688 59.007812 168.214844 58.914062 168.214844 C 53.105469 165.820312 55.78125 162.417969 56.703125 158.828125 C 57.625 155.242188 62.878906 148.707031 64.8125 147.789062 C 66.285156 147.144531 68.589844 144.9375 69.328125 144.109375 Z M 377.0625 144.109375 C 381.949219 141.074219 379.09375 138.128906 377.710938 134.816406 C 376.328125 131.414062 370.335938 125.523438 368.308594 124.789062 C 366.28125 124.050781 362.960938 121.292969 362.960938 121.292969 C 362.960938 121.292969 363.976562 123.222656 363.792969 127.730469 C 363.609375 132.238281 366.648438 137.578125 368.308594 139.785156 C 369.96875 141.992188 372.179688 146.867188 376.601562 144.382812 C 376.695312 144.292969 376.789062 144.292969 376.878906 144.199219 C 377.0625 145.027344 377.339844 146.960938 376.878906 150.273438 C 376.140625 154.6875 378.539062 160.394531 379.921875 162.785156 C 381.210938 165.085938 382.871094 170.050781 387.296875 168.488281 C 387.386719 169.042969 387.480469 171.15625 386.28125 174.746094 C 384.898438 178.976562 386.28125 185.046875 387.296875 187.625 C 388.21875 190.109375 389.046875 195.261719 393.65625 194.433594 C 393.65625 194.984375 393.378906 197.011719 391.625 200.414062 C 389.601562 204.371094 389.96875 210.625 390.519531 213.292969 C 391.074219 215.964844 390.980469 221.390625 396.050781 221.023438 C 396.050781 221.023438 396.140625 221.023438 396.140625 221.023438 C 396.050781 221.484375 395.589844 223.503906 393.195312 226.726562 C 390.519531 230.316406 389.96875 236.480469 390.058594 239.238281 C 390.152344 242 389.230469 247.335938 394.296875 247.703125 C 394.296875 247.703125 394.390625 247.703125 394.390625 247.703125 C 394.207031 248.070312 393.46875 250.09375 390.613281 252.855469 C 387.386719 255.984375 385.820312 261.960938 385.453125 264.722656 C 385.082031 267.484375 383.332031 272.542969 388.308594 273.832031 C 388.492188 273.925781 388.679688 273.925781 388.859375 273.925781 C 388.492188 274.476562 387.296875 276.132812 384.34375 278.15625 C 380.660156 280.734375 378.171875 286.34375 377.339844 289.011719 C 376.511719 291.683594 374.023438 296.371094 378.632812 298.398438 C 384.34375 300.878906 384.992188 296.648438 386.925781 293.519531 C 388.859375 290.390625 389.96875 282.113281 389.320312 279.996094 C 388.769531 278.25 388.859375 274.84375 388.953125 273.832031 C 394.296875 274.84375 394.296875 270.796875 395.679688 267.484375 C 397.0625 264.078125 396.878906 255.707031 395.867188 253.777344 C 394.945312 252.027344 394.484375 248.164062 394.484375 247.613281 C 400.566406 248.070312 399.828125 243.929688 400.65625 240.34375 C 401.488281 236.753906 399.921875 228.566406 398.632812 226.816406 C 397.433594 225.253906 396.417969 221.484375 396.234375 220.933594 C 402.316406 220.378906 400.9375 216.421875 401.117188 212.742188 C 401.304688 209.0625 398.445312 201.242188 396.972656 199.679688 C 395.589844 198.296875 394.023438 194.984375 393.65625 194.34375 C 393.746094 194.34375 393.835938 194.34375 393.929688 194.25 C 400.015625 192.777344 397.984375 189.003906 397.617188 185.328125 C 397.25 181.644531 393.195312 174.378906 391.351562 173.089844 C 389.78125 171.984375 387.664062 168.949219 387.203125 168.304688 C 387.296875 168.304688 387.386719 168.214844 387.480469 168.214844 C 393.285156 165.820312 390.613281 162.417969 389.691406 158.828125 C 388.679688 155.242188 383.515625 148.707031 381.578125 147.789062 C 380.199219 147.144531 377.894531 144.9375 377.0625 144.109375 Z M 26.011719 251.289062 C 26.011719 251.289062 26.75 253.589844 30.433594 256.996094 C 34.121094 260.398438 35.964844 267.117188 36.425781 270.152344 C 36.886719 273.1875 38.914062 278.800781 33.476562 280.363281 C 26.75 282.207031 26.65625 277.421875 25.089844 273.648438 C 23.523438 269.875 23.613281 260.492188 24.628906 258.375 C 25.644531 256.167969 26.011719 251.289062 26.011719 251.289062 Z M 420.476562 251.289062 C 420.476562 251.289062 419.734375 253.589844 416.050781 256.996094 C 412.363281 260.398438 410.519531 267.117188 410.058594 270.152344 C 409.597656 273.1875 407.570312 278.800781 413.007812 280.363281 C 419.734375 282.207031 419.828125 277.421875 421.398438 273.648438 C 422.960938 269.875 422.871094 260.492188 421.855469 258.375 C 420.84375 256.167969 420.476562 251.289062 420.476562 251.289062 Z M 23.613281 220.285156 C 23.613281 220.285156 22.511719 225.070312 21.128906 227.003906 C 19.746094 229.027344 18.363281 238.226562 19.375 242.183594 C 20.390625 246.140625 19.746094 250.921875 26.65625 250.003906 C 32.277344 249.359375 31.082031 243.472656 31.082031 240.34375 C 31.082031 237.214844 30.25 230.410156 27.117188 226.542969 C 24.074219 222.679688 23.613281 220.285156 23.613281 220.285156 Z M 422.777344 220.285156 C 422.777344 220.285156 423.882812 225.070312 425.265625 227.003906 C 426.648438 229.027344 428.03125 238.226562 427.015625 242.183594 C 426.003906 246.140625 426.648438 250.921875 419.734375 250.003906 C 414.117188 249.359375 415.3125 243.472656 415.3125 240.34375 C 415.3125 237.214844 416.140625 230.410156 419.273438 226.542969 C 422.410156 222.679688 422.777344 220.285156 422.777344 220.285156 Z M 26.472656 190.386719 C 26.472656 190.386719 26.472656 192.777344 29.050781 197.101562 C 31.542969 201.425781 31.449219 208.328125 30.988281 211.363281 C 30.527344 214.398438 30.894531 220.378906 25.183594 220.285156 C 18.175781 220.101562 19.558594 215.503906 19.097656 211.457031 C 18.636719 207.3125 21.402344 198.480469 23.0625 196.734375 C 24.722656 194.984375 26.472656 190.386719 26.472656 190.386719 Z M 420.015625 190.386719 C 420.015625 190.386719 420.015625 192.777344 417.433594 197.101562 C 414.945312 201.425781 415.035156 208.328125 415.496094 211.363281 C 415.957031 214.398438 415.589844 220.378906 421.304688 220.285156 C 428.308594 220.101562 426.925781 215.503906 427.386719 211.457031 C 427.847656 207.3125 425.082031 198.480469 423.421875 196.734375 C 421.765625 194.984375 420.015625 190.386719 420.015625 190.386719 Z M 34.398438 160.394531 C 34.398438 160.394531 31.816406 164.53125 29.882812 166.003906 C 27.949219 167.476562 23.613281 175.757812 23.339844 179.804688 C 23.0625 183.945312 20.941406 188.179688 27.761719 189.558594 C 33.386719 190.753906 34.027344 184.773438 35.042969 181.828125 C 36.058594 178.886719 37.441406 172.167969 35.6875 167.476562 C 33.9375 162.785156 34.398438 160.394531 34.398438 160.394531 Z M 412.085938 160.394531 C 412.085938 160.394531 414.667969 164.53125 416.601562 166.003906 C 418.539062 167.476562 422.871094 175.757812 423.148438 179.804688 C 423.421875 183.945312 425.542969 188.179688 418.722656 189.558594 C 413.101562 190.753906 412.457031 184.773438 411.441406 181.828125 C 410.429688 178.886719 409.046875 172.167969 410.796875 167.476562 C 412.546875 162.785156 412.085938 160.394531 412.085938 160.394531 Z M 46.289062 132.425781 C 46.289062 132.425781 42.96875 136.011719 40.847656 137.117188 C 38.730469 138.21875 33.015625 145.582031 31.910156 149.535156 C 30.894531 153.492188 28.039062 157.355469 34.488281 159.933594 C 39.746094 162.050781 41.589844 156.34375 43.0625 153.675781 C 44.535156 151.007812 47.117188 144.570312 46.289062 139.601562 C 45.457031 134.632812 46.289062 132.425781 46.289062 132.425781 Z M 400.195312 132.425781 C 400.195312 132.425781 403.515625 136.011719 405.636719 137.117188 C 407.757812 138.21875 413.46875 145.582031 414.578125 149.535156 C 415.589844 153.492188 418.445312 157.355469 411.996094 159.933594 C 406.742188 162.050781 404.898438 156.34375 403.421875 153.675781 C 401.949219 151.007812 399.367188 144.570312 400.195312 139.601562 C 401.027344 134.632812 400.195312 132.425781 400.195312 132.425781 Z M 62.324219 106.480469 C 62.324219 106.480469 58.546875 109.609375 56.242188 110.34375 C 53.9375 111.078125 47.207031 117.613281 45.644531 121.382812 C 44.074219 125.15625 40.667969 128.558594 46.746094 132.054688 C 51.632812 134.910156 54.214844 129.480469 56.058594 126.996094 C 57.902344 124.511719 61.308594 118.53125 61.21875 113.5625 C 61.21875 108.59375 62.324219 106.480469 62.324219 106.480469 Z M 384.160156 106.480469 C 384.160156 106.480469 387.9375 109.609375 390.242188 110.34375 C 392.546875 111.078125 399.277344 117.613281 400.84375 121.382812 C 402.410156 125.15625 405.820312 128.558594 399.738281 132.054688 C 394.851562 134.910156 392.273438 129.480469 390.429688 126.996094 C 388.585938 124.511719 385.175781 118.53125 385.265625 113.5625 C 385.265625 108.59375 384.160156 106.480469 384.160156 106.480469 Z M 100.847656 100.589844 C 100.847656 100.589844 97.164062 102.890625 94.949219 103.257812 C 92.832031 103.628906 86.011719 108.59375 84.167969 111.722656 C 82.324219 114.945312 78.914062 117.429688 83.800781 121.382812 C 87.855469 124.511719 90.804688 120.003906 92.738281 118.070312 C 94.675781 116.140625 98.542969 111.265625 99.003906 106.753906 C 99.558594 102.339844 100.847656 100.589844 100.847656 100.589844 Z M 345.636719 100.589844 C 345.636719 100.589844 349.320312 102.890625 351.535156 103.257812 C 353.65625 103.628906 360.382812 108.59375 362.320312 111.722656 C 364.160156 114.945312 367.570312 117.429688 362.6875 121.382812 C 358.632812 124.511719 355.679688 120.003906 353.746094 118.070312 C 351.8125 116.140625 347.941406 111.265625 347.480469 106.753906 C 346.925781 102.339844 345.636719 100.589844 345.636719 100.589844 Z M 81.863281 83.019531 C 81.863281 83.019531 80.480469 84.949219 79.835938 89.917969 C 79.285156 94.886719 74.949219 100.316406 72.832031 102.523438 C 70.621094 104.640625 67.300781 109.699219 62.878906 106.203125 C 57.347656 101.878906 61.21875 99.027344 63.339844 95.4375 C 65.457031 91.941406 73.015625 86.421875 75.410156 85.964844 C 77.625 85.59375 81.863281 83.019531 81.863281 83.019531 Z M 364.621094 83.019531 C 364.621094 83.019531 366.003906 84.949219 366.648438 89.917969 C 367.203125 94.886719 371.535156 100.316406 373.65625 102.523438 C 375.867188 104.640625 379.183594 109.699219 383.609375 106.203125 C 389.140625 101.878906 385.265625 99.027344 383.148438 95.4375 C 381.027344 91.941406 373.46875 86.421875 371.074219 85.964844 C 368.769531 85.59375 364.621094 83.019531 364.621094 83.019531 Z M 114.210938 71.703125 C 114.210938 71.703125 109.789062 73.820312 107.390625 74.003906 C 104.996094 74.1875 96.886719 78.878906 94.398438 82.191406 C 91.910156 85.503906 87.855469 87.988281 92.832031 92.769531 C 96.886719 96.726562 100.757812 92.128906 103.152344 90.195312 C 105.546875 88.261719 110.34375 83.292969 111.445312 78.417969 C 112.554688 73.542969 114.210938 71.703125 114.210938 71.703125 Z M 332.273438 71.703125 C 332.273438 71.703125 336.695312 73.820312 339.09375 74.003906 C 341.488281 74.1875 349.601562 78.878906 352.085938 82.191406 C 354.578125 85.503906 358.632812 87.988281 353.65625 92.769531 C 349.601562 96.726562 345.726562 92.128906 343.332031 90.195312 C 340.9375 88.261719 336.140625 83.292969 335.039062 78.417969 C 333.929688 73.542969 332.273438 71.703125 332.273438 71.703125 Z M 332.273438 71.703125 "></path>
<path style=" stroke:none;fill-rule:evenodd;fill:rgb(96.078431%,87.843137%,0.784314%);fill-opacity:1;" d="M 146.714844 271.890625 L 122.484375 271.800781 L 147.082031 240.632812 L 112.351562 223.257812 L 147.082031 205.886719 L 123.589844 175.085938 L 163.023438 174.628906 L 154.085938 137.210938 L 189.378906 153.300781 L 198.496094 115.242188 L 223.097656 145.671875 L 247.699219 115.242188 L 256.820312 153.300781 L 292.109375 137.210938 L 283.171875 174.628906 L 322.605469 175.085938 L 299.113281 205.886719 L 333.847656 223.257812 L 299.113281 240.632812 L 323.710938 271.800781 L 299.480469 271.890625 L 299.570312 284.578125 L 349.785156 284.304688 L 318.917969 245.046875 L 362.316406 223.351562 L 318.550781 201.472656 L 348.035156 162.769531 L 299.203125 162.125 L 310.441406 114.871094 L 265.574219 135.28125 L 254.054688 87.109375 L 223.097656 125.445312 L 192.140625 87.109375 L 180.621094 135.28125 L 135.753906 114.871094 L 146.992188 162.125 L 98.160156 162.769531 L 127.644531 201.472656 L 83.878906 223.351562 L 127.277344 245.046875 L 96.226562 284.394531 L 146.441406 284.667969 Z M 223.007812 22.207031 L 226.507812 33.054688 L 237.929688 33.054688 L 228.71875 39.765625 L 232.21875 50.613281 L 223.007812 43.902344 L 213.789062 50.613281 L 217.292969 39.765625 L 208.082031 33.054688 L 219.503906 33.054688 Z M 223.007812 22.207031 "></path>
<path style=" stroke:none;fill-rule:evenodd;fill:rgb(96.078431%,87.843137%,0.784314%);fill-opacity:1;" d="M 222.308594 378.640625 L 223.230469 378.640625 C 262.296875 378.640625 281.828125 414.386719 281.828125 414.386719 L 284.5 419.246094 L 325.871094 395.234375 L 322.648438 390.464844 C 308.179688 369.113281 292.792969 358.113281 277.039062 351.878906 L 276.210938 351.511719 L 275.289062 351.421875 C 275.289062 351.421875 248.570312 350.140625 232.445312 356.097656 C 228.761719 357.472656 225.628906 359.304688 223.230469 361.414062 C 220.835938 359.214844 217.703125 357.472656 214.019531 356.097656 C 197.988281 350.046875 171.175781 351.421875 171.175781 351.421875 L 170.253906 351.511719 L 169.425781 351.878906 C 153.671875 358.203125 138.285156 369.113281 123.816406 390.464844 L 120.59375 395.234375 L 161.960938 419.246094 L 164.632812 414.386719 C 164.632812 414.386719 183.796875 379.195312 222.308594 378.640625 Z M 222.308594 378.640625 "></path>
<path style=" stroke:none;fill-rule:evenodd;fill:rgb(87.45098%,11.764706%,14.901961%);fill-opacity:1;" d="M 128.363281 393.578125 L 159.863281 412.023438 C 159.863281 412.023438 181.046875 373.195312 223.230469 373.195312 C 223.230469 354.011719 171.46875 356.777344 171.46875 356.777344 C 156.550781 362.773438 142.089844 373.195312 128.363281 393.578125 Z M 318.097656 393.578125 L 286.601562 412.023438 C 286.601562 412.023438 265.414062 373.195312 223.230469 373.195312 C 223.230469 354.011719 274.992188 356.777344 274.992188 356.777344 C 289.914062 362.773438 304.375 373.195312 318.097656 393.578125 Z M 318.097656 393.578125 "></path>
<path style=" stroke:none;fill-rule:evenodd;fill:rgb(96.078431%,87.843137%,0.784314%);fill-opacity:1;" d="M 55.480469 330.539062 L 49.308594 332.929688 L 78.328125 368.679688 L 139.21875 343.773438 L 114.808594 311.425781 L 111.675781 312.25 C 92.421875 317.214844 73.71875 323.371094 55.480469 330.539062 Z M 368.136719 368.679688 L 397.15625 332.929688 L 390.984375 330.539062 C 372.742188 323.371094 354.042969 317.214844 334.878906 312.34375 L 331.75 311.515625 L 307.246094 343.867188 Z M 368.136719 368.679688 "></path>
<path style=" stroke:none;fill-rule:evenodd;fill:rgb(87.45098%,11.764706%,14.901961%);fill-opacity:1;" d="M 57.347656 335.015625 C 75.410156 327.953125 93.933594 321.902344 112.917969 317.042969 L 131.625 341.703125 L 79.925781 362.792969 Z M 389.382812 335.015625 C 371.320312 327.953125 352.796875 321.902344 333.8125 317.042969 L 315.105469 341.703125 L 366.804688 362.792969 Z M 389.382812 335.015625 "></path>
<path style=" stroke:none;fill-rule:evenodd;fill:rgb(96.078431%,87.843137%,0.784314%);fill-opacity:1;" d="M 82.65625 342.042969 L 75.839844 344.4375 L 110.9375 395.167969 L 114.714844 394.058594 C 187.023438 373.398438 259.429688 373.582031 331.742188 394.058594 L 335.519531 395.167969 L 370.890625 344.347656 L 363.890625 342.042969 C 270.117188 311.238281 176.339844 309.761719 82.65625 342.042969 Z M 82.65625 342.042969 "></path>
<path style=" stroke:none;fill-rule:evenodd;fill:rgb(87.45098%,11.764706%,14.901961%);fill-opacity:1;" d="M 84.414062 347.332031 C 176.992188 315.488281 269.566406 316.960938 362.046875 347.332031 L 333.125 388.746094 C 259.800781 368.039062 186.386719 367.855469 113.0625 388.746094 Z M 84.414062 347.332031 "></path>
<path style=" stroke:none;fill-rule:evenodd;fill:rgb(100%,100%,100%);fill-opacity:1;" d="M 180.789062 191.050781 L 177.453125 191.882812 L 178.84375 190.675781 L 176.066406 189.753906 L 178.566406 189.195312 L 177.085938 187.066406 L 179.398438 188.546875 L 179.304688 186.976562 L 180.972656 189.011719 L 181.621094 187.34375 L 182.457031 190.585938 C 182.457031 190.585938 183.199219 191.882812 185.140625 189.566406 C 187.175781 187.253906 188.105469 187.808594 188.753906 187.808594 C 190.605469 187.808594 192.273438 189.472656 192.921875 190.308594 C 194.125 189.105469 195.234375 184.378906 201.160156 184.378906 C 204.496094 184.378906 206.53125 185.492188 208.011719 187.808594 C 209.496094 190.125 209.496094 190.957031 210.976562 189.9375 C 212.460938 188.921875 210.328125 187.992188 209.308594 186.511719 C 208.292969 185.03125 208.566406 183.917969 208.566406 183.917969 L 204.589844 182.160156 L 207.917969 182.066406 L 204.589844 180.214844 L 207.917969 180.304688 L 206.902344 178.453125 C 206.902344 178.453125 209.773438 179.378906 211.625 179.378906 C 213.476562 179.378906 213.847656 180.121094 214.585938 180.492188 C 215.328125 180.863281 216.53125 181.507812 216.53125 181.507812 C 216.53125 181.507812 216.164062 182.527344 215.792969 182.621094 C 215.515625 182.710938 213.664062 182.34375 213.664062 182.34375 L 213.199219 182.804688 L 215.421875 183.824219 C 215.421875 183.824219 214.773438 184.566406 214.402344 184.84375 C 214.21875 184.84375 214.03125 184.84375 213.847656 184.75 C 213.199219 184.289062 211.996094 183.453125 211.808594 183.546875 C 211.53125 183.636719 210.605469 184.378906 211.625 185.214844 C 212.644531 186.046875 214.402344 187.066406 214.402344 189.566406 C 214.402344 190.585938 214.21875 191.234375 214.21875 191.234375 L 216.164062 191.511719 C 216.164062 191.511719 214.773438 193.363281 214.3125 194.566406 C 213.753906 193.179688 213.109375 192.4375 213.109375 192.4375 C 213.109375 192.4375 212.273438 194.289062 210.234375 194.289062 C 208.199219 194.289062 206.996094 192.4375 206.996094 192.4375 L 206.160156 193.457031 C 206.160156 193.457031 206.996094 194.847656 207.273438 195.308594 C 206.253906 194.847656 203.105469 194.289062 203.105469 194.289062 C 203.105469 194.289062 204.214844 193.457031 204.589844 192.808594 C 204.957031 192.066406 206.253906 191.511719 206.253906 191.511719 C 206.253906 191.511719 203.753906 187.4375 200.882812 187.4375 C 198.105469 187.4375 196.625 189.660156 196.625 189.660156 C 196.625 189.660156 198.382812 189.84375 199.492188 189.660156 C 197.363281 190.675781 197.363281 191.417969 197.179688 191.789062 C 196.992188 192.160156 196.625 191.050781 195.695312 190.957031 C 194.585938 192.808594 194.03125 193.828125 192.640625 193.828125 C 191.253906 193.828125 189.863281 193.179688 189.308594 193.828125 C 188.753906 194.476562 189.863281 195.214844 189.863281 195.214844 C 189.863281 195.214844 188.382812 194.847656 187.640625 194.847656 C 186.808594 194.847656 186.160156 194.660156 186.160156 194.660156 C 186.160156 194.660156 187.363281 193.273438 188.011719 192.714844 C 188.753906 192.066406 190.324219 192.53125 190.882812 191.882812 C 191.4375 191.140625 189.214844 190.125 187.917969 190.125 C 186.621094 190.125 184.675781 192.996094 182.824219 192.996094 C 181.4375 192.621094 180.789062 191.050781 180.789062 191.050781 Z M 213.570312 180.863281 C 213.382812 180.863281 213.199219 181.046875 213.199219 181.230469 C 213.199219 181.417969 213.382812 181.601562 213.570312 181.601562 C 213.753906 181.601562 213.9375 181.417969 213.9375 181.230469 C 213.9375 180.953125 213.753906 180.863281 213.570312 180.863281 Z M 213.570312 180.863281 "></path>
<path style=" stroke:none;fill-rule:evenodd;fill:rgb(100%,100%,100%);fill-opacity:1;" d="M 265.425781 191.121094 L 268.746094 191.957031 L 267.363281 190.746094 L 270.128906 189.8125 L 267.640625 189.257812 L 269.117188 187.113281 L 266.808594 188.605469 L 266.902344 187.019531 L 265.242188 189.070312 L 264.597656 187.390625 L 263.765625 190.652344 C 263.765625 190.652344 263.03125 191.957031 261.09375 189.628906 C 259.066406 187.300781 258.144531 187.859375 257.5 187.859375 C 255.65625 187.859375 253.992188 189.535156 253.351562 190.371094 C 252.148438 189.164062 251.042969 184.414062 245.144531 184.414062 C 241.824219 184.414062 239.796875 185.53125 238.324219 187.859375 C 236.84375 190.1875 236.84375 191.027344 235.371094 190 C 233.894531 188.976562 236.019531 188.046875 237.03125 186.554688 C 238.046875 185.066406 237.765625 183.949219 237.765625 183.949219 L 241.734375 182.179688 L 238.414062 182.085938 L 241.734375 180.222656 L 238.414062 180.316406 L 239.429688 178.453125 C 239.429688 178.453125 236.570312 179.382812 234.726562 179.382812 C 232.882812 179.382812 232.511719 180.132812 231.777344 180.503906 C 231.316406 180.6875 230.761719 180.96875 230.394531 181.246094 C 230.207031 181.339844 230.023438 181.527344 229.933594 181.710938 C 229.933594 181.898438 230.023438 182.179688 230.207031 182.269531 C 230.300781 182.457031 230.394531 182.550781 230.484375 182.550781 C 230.761719 182.644531 232.605469 182.269531 232.605469 182.269531 C 232.605469 182.269531 232.882812 182.550781 232.972656 182.644531 C 232.972656 182.644531 232.972656 182.644531 232.882812 182.644531 L 232.511719 182.925781 C 230.761719 183.761719 231.5 184.414062 231.777344 184.785156 C 231.960938 184.785156 232.144531 184.785156 232.328125 184.691406 C 232.972656 184.226562 234.175781 183.390625 234.355469 183.484375 C 234.636719 183.574219 235.558594 184.320312 234.539062 185.160156 C 233.527344 185.996094 231.777344 187.019531 231.777344 189.535156 C 231.777344 190.558594 231.960938 191.210938 231.960938 191.210938 L 230.023438 191.492188 C 230.023438 191.492188 231.40625 193.351562 231.867188 194.566406 C 232.421875 193.164062 233.066406 192.421875 233.066406 192.421875 C 233.066406 192.421875 233.894531 194.285156 235.921875 194.285156 C 237.953125 194.285156 239.148438 192.421875 239.148438 192.421875 L 239.980469 193.445312 C 239.980469 193.445312 239.148438 194.84375 238.875 195.308594 C 239.890625 194.84375 243.023438 194.285156 243.023438 194.285156 C 243.023438 194.285156 241.914062 193.445312 241.550781 192.792969 C 241.089844 192.050781 239.890625 191.492188 239.890625 191.492188 C 239.890625 191.492188 242.378906 187.390625 245.234375 187.390625 C 248 187.390625 249.480469 189.628906 249.480469 189.628906 C 249.480469 189.628906 247.726562 189.8125 246.617188 189.628906 C 248.738281 190.652344 248.738281 191.398438 248.921875 191.769531 C 249.109375 192.144531 249.480469 191.027344 250.402344 190.933594 C 251.503906 192.792969 252.058594 193.820312 253.441406 193.820312 C 254.824219 193.820312 256.207031 193.164062 256.757812 193.820312 C 257.3125 194.472656 256.207031 195.214844 256.207031 195.214844 C 256.207031 195.214844 257.683594 194.84375 258.421875 194.84375 C 259.25 194.84375 259.894531 194.65625 259.894531 194.65625 C 259.894531 194.65625 258.695312 193.257812 258.050781 192.699219 C 257.3125 192.050781 255.746094 192.515625 255.195312 191.863281 C 254.640625 191.121094 256.851562 190.09375 258.144531 190.09375 C 259.433594 190.09375 261.371094 192.980469 263.214844 192.980469 C 264.78125 192.699219 265.425781 191.121094 265.425781 191.121094 Z M 232.882812 180.875 C 233.066406 180.875 233.253906 181.0625 233.253906 181.246094 C 233.253906 181.433594 233.066406 181.617188 232.882812 181.617188 C 232.699219 181.617188 232.511719 181.433594 232.511719 181.246094 C 232.511719 180.96875 232.699219 180.875 232.882812 180.875 Z M 232.882812 180.875 "></path>
<path style=" stroke:none;fill-rule:evenodd;fill:rgb(100%,100%,100%);fill-opacity:1;" d="M 223.230469 195.308594 L 221.304688 195.308594 C 221.304688 195.308594 222.957031 194.578125 221.671875 193.757812 C 220.480469 192.933594 218.183594 191.929688 217.453125 190.925781 C 216.71875 189.917969 216.257812 188.730469 216.71875 187.179688 C 217.359375 188.640625 219.5625 189.1875 219.652344 187.816406 C 218.917969 186.355469 218.460938 184.894531 219.746094 183.339844 C 220.113281 184.710938 220.660156 185.71875 221.671875 185.71875 C 222.683594 185.71875 223.046875 184.53125 222.128906 183.25 C 221.214844 181.972656 222.589844 181.332031 223.230469 180.328125 C 223.964844 181.332031 225.25 182.0625 224.332031 183.25 C 223.414062 184.53125 223.78125 185.71875 224.792969 185.71875 C 225.800781 185.71875 226.445312 184.621094 226.71875 183.339844 C 228.003906 184.894531 227.546875 186.355469 226.8125 187.816406 C 226.902344 189.1875 229.105469 188.640625 229.746094 187.179688 C 230.207031 188.730469 229.746094 189.917969 229.011719 190.925781 C 228.28125 191.929688 225.984375 192.933594 224.792969 193.757812 C 223.597656 194.578125 225.25 195.308594 225.25 195.308594 Z M 223.230469 186.628906 C 221.582031 186.628906 220.203125 188 220.203125 189.644531 C 220.203125 191.289062 221.582031 192.660156 223.230469 192.660156 C 224.882812 192.660156 226.261719 191.289062 226.261719 189.644531 C 226.261719 188 224.882812 186.628906 223.230469 186.628906 Z M 223.230469 186.628906 "></path>
<path style=" stroke:none;fill-rule:evenodd;fill:rgb(100%,100%,100%);fill-opacity:1;" d="M 128.746094 375.367188 L 122.46875 345.773438 L 132.070312 343.75 C 135.761719 343.015625 138.164062 342.648438 139.269531 342.742188 C 141.023438 342.835938 142.683594 343.476562 144.160156 344.761719 C 145.640625 346.050781 146.5625 347.796875 147.117188 350.1875 C 147.484375 352.023438 147.484375 353.585938 147.117188 354.964844 C 146.746094 356.34375 146.101562 357.539062 145.175781 358.457031 C 144.34375 359.375 143.328125 360.019531 142.316406 360.480469 C 140.929688 361.03125 138.898438 361.675781 136.222656 362.226562 L 132.347656 363.050781 L 134.746094 374.171875 Z M 129.578125 349.542969 L 131.332031 357.90625 L 134.65625 357.261719 C 137.054688 356.800781 138.53125 356.25 139.269531 355.792969 C 140.007812 355.332031 140.5625 354.6875 140.835938 353.953125 C 141.117188 353.21875 141.207031 352.390625 141.023438 351.472656 C 140.835938 350.367188 140.285156 349.542969 139.546875 348.992188 C 138.808594 348.4375 137.882812 348.164062 136.867188 348.164062 C 136.132812 348.164062 134.65625 348.4375 132.53125 348.898438 Z M 129.578125 349.542969 "></path>
<path style=" stroke:none;fill-rule:evenodd;fill:rgb(100%,100%,100%);fill-opacity:1;" d="M 157.882812 369.480469 L 153.824219 339.523438 L 159.914062 338.695312 L 161.480469 350.460938 L 173.382812 348.898438 L 171.8125 337.132812 L 177.902344 336.304688 L 181.960938 366.265625 L 175.875 367.09375 L 174.121094 353.949219 L 162.21875 355.605469 L 163.972656 368.65625 Z M 157.882812 369.480469 "></path>
<path style=" stroke:none;fill-rule:evenodd;fill:rgb(100%,100%,100%);fill-opacity:1;" d="M 188.125 335.21875 L 194.210938 334.851562 L 195.039062 351.191406 C 195.132812 353.761719 195.316406 355.503906 195.5 356.242188 C 195.867188 357.433594 196.515625 358.441406 197.527344 359.085938 C 198.542969 359.820312 199.921875 360.097656 201.585938 360.003906 C 203.335938 359.910156 204.625 359.453125 205.453125 358.71875 C 206.285156 357.984375 206.746094 357.066406 206.929688 356.054688 C 207.023438 355.046875 207.023438 353.304688 206.929688 350.917969 L 206.007812 334.207031 L 212.09375 333.84375 L 212.921875 349.722656 C 213.105469 353.304688 213.105469 355.875 212.828125 357.433594 C 212.554688 358.902344 212 360.277344 211.171875 361.289062 C 210.339844 362.390625 209.234375 363.214844 207.757812 363.953125 C 206.285156 364.683594 204.347656 365.054688 201.953125 365.144531 C 199.09375 365.328125 196.882812 365.054688 195.316406 364.503906 C 193.75 363.953125 192.550781 363.125 191.628906 362.117188 C 190.707031 361.105469 190.0625 360.003906 189.695312 358.902344 C 189.234375 357.160156 188.863281 354.679688 188.679688 351.28125 Z M 196.328125 333.109375 L 198.820312 326.773438 L 205.363281 326.40625 L 200.015625 332.832031 Z M 196.328125 333.109375 "></path>
<path style=" stroke:none;fill-rule:evenodd;fill:rgb(100%,100%,100%);fill-opacity:1;" d="M 240.464844 364.566406 L 241.742188 339.5 L 232.878906 339.039062 L 233.152344 333.898438 L 257 335.183594 L 256.726562 340.324219 L 247.863281 339.867188 L 246.585938 364.933594 Z M 240.464844 364.566406 "></path>
<path style=" stroke:none;fill-rule:evenodd;fill:rgb(100%,100%,100%);fill-opacity:1;" d="M 261.019531 365.90625 L 264.800781 335.769531 L 270.894531 336.601562 L 269.417969 348.394531 L 281.320312 349.960938 L 282.796875 338.074219 L 288.886719 338.8125 L 285.105469 368.945312 L 279.011719 368.207031 L 280.675781 355.03125 L 268.769531 353.558594 L 267.109375 366.644531 Z M 261.019531 365.90625 "></path>
<path style=" stroke:none;fill-rule:evenodd;fill:rgb(100%,100%,100%);fill-opacity:1;" d="M 293.878906 355.164062 C 294.523438 352.125 295.445312 349.730469 296.824219 347.792969 C 297.835938 346.410156 299.035156 345.210938 300.414062 344.292969 C 301.796875 343.371094 303.269531 342.722656 304.832031 342.449219 C 306.859375 342.078125 309.070312 342.078125 311.464844 342.632812 C 315.792969 343.554688 319.011719 345.582031 321.128906 348.898438 C 323.15625 352.125 323.707031 356.179688 322.695312 361.066406 C 321.683594 365.855469 319.660156 369.355469 316.433594 371.476562 C 313.304688 373.6875 309.53125 374.242188 305.109375 373.410156 C 300.691406 372.492188 297.46875 370.464844 295.445312 367.144531 C 293.511719 363.917969 292.960938 359.957031 293.878906 355.164062 Z M 300.136719 356.273438 C 299.402344 359.585938 299.679688 362.355469 300.875 364.382812 C 302.074219 366.40625 303.824219 367.695312 306.214844 368.25 C 308.609375 368.710938 310.726562 368.25 312.660156 366.871094 C 314.503906 365.488281 315.882812 363 316.527344 359.585938 C 317.261719 356.179688 316.988281 353.507812 315.882812 351.476562 C 314.777344 349.453125 312.9375 348.253906 310.449219 347.699219 C 307.964844 347.148438 305.847656 347.609375 303.914062 348.992188 C 302.164062 350.46875 300.875 352.863281 300.136719 356.273438 Z M 300.507812 380.324219 L 301.703125 374.609375 L 307.410156 375.808594 L 306.214844 381.519531 Z M 300.507812 380.324219 "></path>
</g>
</svg>